<svg width="800" height="531" viewBox="0 0 800 531" fill="none" xmlns="http://www.w3.org/2000/svg">
<path fill-rule="evenodd" clip-rule="evenodd" d="M121.823 316.996C121.823 306.177 116.171 306.887 110.763 306.774V303.646C115.452 303.873 120.26 303.873 124.961 303.873C130.011 303.873 136.868 303.646 145.777 303.646C176.932 303.646 193.903 324.45 193.903 345.754C193.903 357.677 186.924 387.628 144.33 387.628C138.199 387.628 132.536 387.39 126.884 387.39C121.474 387.39 116.171 387.502 110.763 387.628V384.498C117.975 383.77 121.474 383.534 121.823 375.354V316.996ZM133.614 373.423C133.614 382.691 140.239 383.77 146.131 383.77C172.127 383.77 180.658 364.163 180.658 346.237C180.658 323.739 166.222 307.499 143.004 307.499C138.061 307.499 135.785 307.851 133.614 307.981V373.423Z" fill="#1A1919"/>
<path fill-rule="evenodd" clip-rule="evenodd" d="M198.119 384.499H200.399C203.767 384.499 206.175 384.499 206.175 380.52V347.917C206.175 342.632 204.374 341.901 199.916 339.501V337.581C205.571 335.88 212.315 333.611 212.79 333.248C213.637 332.765 214.349 332.637 214.961 332.637C215.55 332.637 215.799 333.36 215.799 334.332V380.52C215.799 384.499 218.45 384.499 221.823 384.499H223.859V387.629C219.768 387.629 215.55 387.392 211.233 387.392C206.902 387.392 202.567 387.503 198.119 387.629V384.499ZM210.99 314.114C207.857 314.114 205.095 311.228 205.095 308.101C205.095 305.087 207.988 302.314 210.99 302.314C214.113 302.314 216.888 304.85 216.888 308.101C216.888 311.354 214.235 314.114 210.99 314.114Z" fill="#1A1919"/>
<path fill-rule="evenodd" clip-rule="evenodd" d="M235.294 348.64C235.294 344.197 233.966 342.994 228.32 340.705V338.421C233.484 336.738 238.414 335.167 244.196 332.636C244.56 332.636 244.909 332.877 244.909 333.839V341.662C251.778 336.738 257.675 332.636 265.748 332.636C275.96 332.636 279.568 340.098 279.568 349.483V380.519C279.568 384.499 282.223 384.499 285.588 384.499H287.759V387.629C283.534 387.629 279.328 387.392 275.001 387.392C270.668 387.392 266.332 387.502 262.001 387.629V384.499H264.172C267.542 384.499 269.938 384.499 269.938 380.519V349.371C269.938 342.505 265.748 339.139 258.881 339.139C255.028 339.139 248.891 342.261 244.909 344.92V380.519C244.909 384.499 247.568 384.499 250.938 384.499H253.099V387.629C248.891 387.629 244.679 387.392 240.339 387.392C236.018 387.392 231.681 387.502 227.354 387.629V384.499H229.524C232.89 384.499 235.294 384.499 235.294 380.519V348.64Z" fill="#1A1919"/>
<path fill-rule="evenodd" clip-rule="evenodd" d="M296.903 354.425C296.658 355.507 296.658 357.309 296.903 361.403C297.612 372.829 304.968 382.21 314.583 382.21C321.21 382.21 326.386 378.599 330.83 374.156L332.51 375.84C326.974 383.178 320.119 389.439 310.261 389.439C291.124 389.439 287.276 370.899 287.276 363.204C287.276 339.619 303.153 332.636 311.567 332.636C321.324 332.636 331.799 338.772 331.91 351.53C331.91 352.261 331.91 352.974 331.799 353.698L330.71 354.425H296.903ZM318.208 350.571C321.21 350.571 321.561 349.004 321.561 347.554C321.561 341.429 317.835 336.495 311.094 336.495C303.761 336.495 298.705 341.899 297.263 350.571H318.208Z" fill="#1A1919"/>
<path fill-rule="evenodd" clip-rule="evenodd" d="M334.683 384.499H337.934C341.29 384.499 343.699 384.499 343.699 380.519V346.717C343.699 342.994 339.251 342.261 337.444 341.299V339.501C346.226 335.768 351.041 332.636 352.142 332.636C352.846 332.636 353.207 332.998 353.207 334.207V345.037H353.461C356.459 340.346 361.521 332.636 368.857 332.636C371.864 332.636 375.709 334.68 375.709 339.015C375.709 342.261 373.435 345.163 370.066 345.163C366.324 345.163 366.324 342.261 362.109 342.261C360.068 342.261 353.328 345.037 353.328 352.261V380.519C353.328 384.499 355.733 384.499 359.104 384.499H365.833V387.629C359.217 387.502 354.181 387.392 349.001 387.392C344.068 387.392 339.013 387.502 334.683 387.629V384.499Z" fill="#1A1919"/>
<path fill-rule="evenodd" clip-rule="evenodd" d="M381 370.898C382.568 378.839 387.371 385.586 396.171 385.586C403.258 385.586 405.903 381.25 405.903 377.041C405.903 362.837 379.681 367.414 379.681 348.044C379.681 341.299 385.099 332.637 398.335 332.637C402.178 332.637 407.35 333.728 412.039 336.137L412.884 348.399H410.119C408.916 340.823 404.71 336.494 397.001 336.494C392.189 336.494 387.622 339.257 387.622 344.432C387.622 358.517 415.528 354.178 415.528 373.069C415.528 381.004 409.159 389.437 394.836 389.437C390.028 389.437 384.363 387.75 380.164 385.343L378.834 371.505L381 370.898Z" fill="#1A1919"/>
<path fill-rule="evenodd" clip-rule="evenodd" d="M524.172 325.417H521.172C518.883 311.353 508.895 305.691 495.429 305.691C481.576 305.691 461.491 314.949 461.491 343.825C461.491 368.138 478.822 385.586 497.346 385.586C509.247 385.586 519.135 377.401 521.536 364.76L524.305 365.479L521.536 383.051C516.483 386.183 502.883 389.437 494.934 389.437C466.792 389.437 448.986 371.266 448.986 344.196C448.986 319.524 471.004 301.832 494.586 301.832C504.328 301.832 513.71 304.97 522.976 308.221L524.172 325.417Z" fill="#1A1919"/>
<path fill-rule="evenodd" clip-rule="evenodd" d="M528.517 384.499H530.795C534.175 384.499 536.577 384.499 536.577 380.52V313.52C536.577 305.691 534.775 305.454 530.197 304.127V302.2C535.008 300.639 540.066 298.477 542.599 297.022C543.905 296.312 544.876 295.697 545.23 295.697C545.966 295.697 546.204 296.428 546.204 297.394V380.52C546.204 384.499 548.854 384.499 552.218 384.499H554.255V387.629C550.177 387.629 545.966 387.392 541.632 387.392C537.302 387.392 532.975 387.503 528.517 387.629V384.499Z" fill="#1A1919"/>
<path fill-rule="evenodd" clip-rule="evenodd" d="M605.77 381.004C605.77 383.178 607.085 383.291 609.125 383.291C610.576 383.291 612.374 383.178 613.95 383.178V385.71C608.772 386.186 598.902 388.715 596.612 389.437L596.012 389.07V379.324C588.801 385.217 583.261 389.437 574.706 389.437C568.211 389.437 561.477 385.217 561.477 375.124V344.313C561.477 341.181 560.999 338.172 554.27 337.579V335.287C558.605 335.168 568.211 334.45 569.779 334.45C571.114 334.45 571.114 335.287 571.114 337.939V368.978C571.114 372.59 571.114 382.927 581.581 382.927C585.663 382.927 591.079 379.807 596.13 375.601V343.228C596.13 340.824 590.357 339.501 586.033 338.303V336.139C596.851 335.406 603.596 334.45 604.799 334.45C605.77 334.45 605.77 335.287 605.77 336.615V381.004Z" fill="#1A1919"/>
<path fill-rule="evenodd" clip-rule="evenodd" d="M629.705 341.301C634.516 337.218 641.015 332.636 647.632 332.636C661.592 332.636 670.015 344.801 670.015 357.913C670.015 373.67 658.459 389.439 641.245 389.439C632.352 389.439 627.658 386.541 624.524 385.218L620.926 387.986L618.403 386.668C619.479 379.57 620.085 372.592 620.085 365.248V313.52C620.085 305.691 618.273 305.454 613.701 304.127V302.2C618.519 300.639 623.567 298.477 626.092 297.022C627.421 296.312 628.379 295.697 628.746 295.697C629.462 295.697 629.705 296.43 629.705 297.394V341.301ZM629.705 374.029C629.705 378.599 634.04 386.306 642.098 386.306C654.97 386.306 660.382 373.67 660.382 362.957C660.382 349.965 650.527 339.139 641.145 339.139C636.674 339.139 632.952 342.032 629.705 344.801V374.029Z" fill="#1A1919"/>
<path fill-rule="evenodd" clip-rule="evenodd" d="M175.575 446.652L175.706 446.523V421.979C175.706 416.607 171.97 415.821 170.007 415.821H168.564V413.856C171.647 413.856 174.658 414.116 177.731 414.116C180.415 414.116 183.11 413.856 185.785 413.856V415.821H184.811C182.052 415.821 178.975 416.343 178.975 424.135V453.923C178.975 456.218 179.04 458.507 179.361 460.539H176.873L143.163 422.953V449.932C143.163 455.633 144.27 457.587 149.312 457.587H150.426V459.556C147.611 459.556 144.799 459.301 141.983 459.301C139.044 459.301 136.028 459.556 133.079 459.556V457.587H133.999C138.515 457.587 139.89 454.51 139.89 449.288V421.705C139.89 418.041 136.868 415.821 133.934 415.821H133.079V413.856C135.563 413.856 138.12 414.116 140.603 414.116C142.574 414.116 144.472 413.856 146.435 413.856L175.575 446.652Z" fill="#1A1919"/>
<path fill-rule="evenodd" clip-rule="evenodd" d="M179.361 460.814L176.666 460.721L143.441 423.691V449.931C143.52 455.623 144.385 457.243 149.314 457.305H150.717V459.834H150.426C147.594 459.834 144.777 459.572 141.983 459.572C139.052 459.572 136.044 459.834 133.077 459.834H132.79V457.305H133.999C138.326 457.28 139.563 454.499 139.61 449.285V421.713C139.597 418.226 136.738 416.105 133.937 416.105H132.79V413.57H133.077C135.58 413.57 138.142 413.825 140.599 413.825C142.552 413.825 144.443 413.57 146.65 413.672L175.422 446.058V421.978C175.389 416.779 171.914 416.148 170.01 416.105H168.277V413.57H168.567C171.659 413.57 174.673 413.825 177.731 413.825C180.396 413.825 183.079 413.57 185.785 413.57H186.073V416.105H184.811C182.108 416.174 179.335 416.412 179.255 424.134V453.921C179.255 456.214 179.327 458.499 179.641 460.485L179.702 460.814H179.361ZM176.876 460.243H179.043C178.75 458.273 178.698 456.099 178.698 453.921V424.134C178.698 416.276 181.992 415.535 184.811 415.53H185.501V414.136C182.92 414.157 180.335 414.394 177.731 414.394C174.732 414.394 171.818 414.157 168.859 414.136L168.852 415.53H170.01C172.022 415.535 175.989 416.429 175.989 421.978L175.902 446.727L175.774 446.854L175.55 447.065L146.434 414.136C144.49 414.136 142.596 414.394 140.599 414.394C138.2 414.394 135.741 414.157 133.367 414.136L133.355 415.53H133.937C137.008 415.535 140.167 417.879 140.167 421.713V449.285C140.167 454.524 138.708 457.869 133.999 457.887L133.367 457.869V459.274C136.202 459.252 139.124 459.011 141.983 459.011C144.714 459.011 147.44 459.252 150.142 459.274V457.887H149.314C144.161 457.869 142.886 455.623 142.881 449.931V422.218L176.876 460.243ZM175.422 446.521V446.496L175.37 446.455L175.422 446.521Z" fill="#1A1919"/>
<path fill-rule="evenodd" clip-rule="evenodd" d="M195.596 417.128C190.68 417.128 190.488 418.313 189.508 423.085H187.542C187.8 421.252 188.124 419.421 188.328 417.523C188.59 415.681 188.721 413.855 188.721 411.961H190.291C190.818 413.927 192.454 413.855 194.23 413.855H227.999C229.775 413.855 231.408 413.79 231.542 411.825L233.106 412.092C232.852 413.855 232.585 415.625 232.394 417.396C232.265 419.163 232.265 420.925 232.265 422.692L230.298 423.421C230.164 421.001 229.84 417.128 225.452 417.128H214.714V451.958C214.714 457.01 217.01 457.587 220.148 457.587H221.396V459.554C218.841 459.554 214.256 459.302 210.728 459.302C206.794 459.302 202.208 459.554 199.652 459.554V457.587H200.902C204.51 457.587 206.334 457.265 206.334 452.095V417.128H195.596Z" fill="#1A1919"/>
<path fill-rule="evenodd" clip-rule="evenodd" d="M221.401 459.834C218.821 459.834 214.241 459.575 210.727 459.575C206.8 459.575 202.219 459.834 199.652 459.834H199.372V457.305H200.902C204.51 457.221 205.96 457.174 206.041 452.095V417.41H195.596V416.836H206.608V452.095C206.608 457.352 204.49 457.883 200.902 457.887H199.932V459.27C202.514 459.252 206.925 459.012 210.727 459.012C214.135 459.012 218.509 459.252 221.103 459.27V457.887H220.148C216.979 457.883 214.432 457.105 214.432 451.96V416.836H225.452C229.844 416.854 230.426 420.586 230.563 423.022L231.981 422.499C231.981 420.789 231.987 419.077 232.103 417.357C232.298 415.665 232.535 414.001 232.781 412.324L231.786 412.157C231.481 414.063 229.636 414.165 227.996 414.141H193.888C192.346 414.142 190.669 414.069 190.08 412.241H188.999C188.989 414.051 188.865 415.808 188.618 417.553C188.422 419.352 188.121 421.078 187.884 422.814H189.281C190.141 418.247 190.702 416.772 195.596 416.836V417.41C190.746 417.506 190.852 418.316 189.785 423.153L189.738 423.376H187.215L187.25 423.037C187.517 421.211 187.85 419.371 188.04 417.47C188.313 415.654 188.436 413.838 188.436 411.961V411.672H190.516L190.565 411.877C191.005 413.528 192.218 413.541 193.888 413.57H227.996C229.819 413.541 231.148 413.516 231.259 411.803L231.281 411.494L231.579 411.553L233.43 411.845L233.383 412.135C233.123 413.892 232.867 415.654 232.669 417.41C232.547 419.164 232.547 420.923 232.547 422.692V422.891L232.357 422.967L230.04 423.815L230.025 423.436C229.844 420.972 229.592 417.41 225.452 417.41H215.003V451.96C215.066 456.896 217.025 457.243 220.148 457.305H221.679V459.834H221.401Z" fill="#1A1919"/>
<path fill-rule="evenodd" clip-rule="evenodd" d="M235.197 457.587H236.12C238.469 457.587 240.964 457.266 240.964 453.858V419.56C240.964 416.147 238.469 415.823 236.12 415.823H235.197V413.856C239.178 413.856 246.003 414.116 251.491 414.116C257 414.116 263.8 413.856 268.251 413.856C268.137 416.672 268.199 421.003 268.393 423.877L266.419 424.399C266.105 420.141 265.32 416.745 258.443 416.745H249.353V433.887H257.13C261.057 433.887 261.912 431.669 262.301 428.13H264.263C264.132 430.687 264.063 433.24 264.063 435.79C264.063 438.283 264.132 440.768 264.263 443.252L262.301 443.643C261.912 439.72 261.716 437.168 257.193 437.168H249.353V452.414C249.353 456.676 253.134 456.676 257.327 456.676C265.186 456.676 268.652 456.147 270.618 448.694L272.444 449.145C271.594 452.622 270.814 456.081 270.226 459.556C266.03 459.556 258.502 459.303 252.622 459.303C246.716 459.303 238.932 459.556 235.197 459.556V457.587Z" fill="#1A1919"/>
<path fill-rule="evenodd" clip-rule="evenodd" d="M270.221 459.834C266.021 459.834 258.487 459.561 252.614 459.561C246.716 459.561 238.934 459.834 235.194 459.834H234.92V457.305H236.117C238.485 457.265 240.641 457.056 240.672 453.856V419.56C240.641 416.36 238.485 416.148 236.117 416.105H234.92V413.57H235.194C239.194 413.57 246.004 413.825 251.491 413.825C256.994 413.825 263.793 413.57 268.251 413.57H268.541L268.531 413.872C268.488 414.851 268.462 416.015 268.462 417.247C268.462 419.51 268.531 421.99 268.659 423.854L268.672 424.087L268.451 424.154L266.149 424.756L266.139 424.419C265.753 420.171 265.183 417.081 258.443 417.016H249.618L249.612 433.599H257.127C260.901 433.559 261.575 431.63 262.021 428.099L262.036 427.836H264.553L264.549 428.136C264.422 430.694 264.345 433.239 264.345 435.789C264.345 438.265 264.422 440.75 264.549 443.239L264.553 443.476L264.316 443.531L262.036 443.983L262.021 443.677C261.567 439.68 261.538 437.488 257.193 437.441H249.618V452.412C249.627 456.392 253.058 456.37 257.324 456.392C265.208 456.345 268.365 455.959 270.338 448.615L270.404 448.35L270.68 448.396L272.778 448.941L272.719 449.211C271.869 452.674 271.088 456.136 270.496 459.601L270.447 459.834H270.221ZM269.978 459.269C270.55 455.959 271.296 452.652 272.099 449.357L270.811 449.032C268.851 456.354 265.051 457.01 257.324 456.96C253.199 456.96 249.074 456.96 249.052 452.412V436.881H257.193C261.765 436.834 262.226 439.59 262.553 443.314L263.967 443.025C263.84 440.611 263.775 438.187 263.775 435.789C263.775 433.331 263.84 430.877 263.967 428.407H262.553C262.185 431.826 261.116 434.212 257.127 434.171H249.052V416.45H258.443C265.25 416.394 266.378 419.919 266.674 424.037L268.085 423.654C267.971 421.807 267.894 419.433 267.894 417.247C267.894 416.127 267.924 415.063 267.961 414.136C263.513 414.157 256.873 414.394 251.491 414.394C246.112 414.394 239.49 414.157 235.483 414.136V415.53H236.117C238.445 415.535 241.232 415.939 241.247 419.56V453.856C241.232 457.47 238.445 457.869 236.117 457.887H235.483V459.269C239.294 459.256 246.862 459.011 252.614 459.011C258.393 459.011 265.759 459.256 269.978 459.269Z" fill="#1A1919"/>
<path fill-rule="evenodd" clip-rule="evenodd" d="M281.286 420.79C281.286 416.016 278.663 415.821 276.632 415.821H275.45V413.856C277.546 413.856 281.606 414.116 285.603 414.116C289.523 414.116 292.67 413.856 296.139 413.856C304.377 413.856 311.726 416.078 311.726 425.382C311.726 431.27 307.795 434.866 302.625 436.907L313.814 453.658C315.652 456.427 316.952 457.204 320.168 457.587V459.556C318.003 459.556 315.908 459.303 313.755 459.303C311.726 459.303 309.621 459.556 307.601 459.556C302.556 452.946 298.232 445.878 293.979 438.338H289.665V452.357C289.665 457.397 292.017 457.587 295.017 457.587H296.204V459.556C292.465 459.556 288.683 459.303 284.943 459.303C281.801 459.303 278.723 459.556 275.45 459.556V457.587H276.632C279.062 457.587 281.286 456.48 281.286 454.062V420.79ZM289.665 435.976H292.863C299.418 435.976 302.948 433.495 302.948 425.765C302.948 419.945 299.215 416.212 293.382 416.212C291.417 416.212 290.579 416.414 289.665 416.477V435.976Z" fill="#1A1919"/>
<path fill-rule="evenodd" clip-rule="evenodd" d="M320.168 459.834C317.972 459.834 315.891 459.572 313.738 459.572C311.742 459.572 309.648 459.834 307.368 459.725C302.345 453.134 298.041 446.105 293.814 438.632H289.945V452.343C290.017 457.272 291.992 457.234 295.018 457.305H296.487V459.834H296.197C292.455 459.834 288.651 459.572 284.941 459.572C281.814 459.572 278.738 459.834 275.45 459.834H275.166V457.305H276.632C278.986 457.287 280.977 456.261 280.986 454.061V420.789C280.937 416.148 278.665 416.17 276.632 416.105H275.166V413.57H275.45C277.568 413.57 281.611 413.825 285.603 413.825C289.512 413.825 292.651 413.57 296.141 413.57C304.394 413.588 311.99 415.859 312.01 425.371C312.01 431.279 308.105 434.971 303.057 437.03L314.05 453.501C315.881 456.216 317.021 456.895 320.206 457.305L320.444 457.342V459.834H320.168ZM289.662 438.054H294.135L294.217 438.2C298.48 445.721 302.782 452.792 307.601 459.274C309.595 459.274 311.698 459.011 313.738 459.011C315.826 459.011 317.848 459.24 319.881 459.269V457.832C316.812 457.458 315.371 456.531 313.583 453.818L302.186 436.775L302.509 436.644C307.636 434.623 311.436 431.127 311.437 425.371C311.436 416.288 304.37 414.182 296.141 414.136C292.692 414.136 289.546 414.403 285.603 414.403C281.757 414.403 277.872 414.157 275.73 414.136V415.53H276.632C278.665 415.535 281.556 415.872 281.556 420.789V454.061C281.556 456.687 279.095 457.881 276.632 457.887H275.73V459.269C278.877 459.256 281.866 459.011 284.941 459.011C288.597 459.011 292.294 459.256 295.915 459.269V457.887H295.018C292.036 457.881 289.372 457.512 289.372 452.343V438.054H289.662ZM289.662 436.256H289.372V416.211L289.622 416.192C290.52 416.12 291.401 415.939 293.382 415.939C299.345 415.939 303.228 419.812 303.233 425.782C303.215 433.599 299.469 436.255 292.863 436.256H289.662ZM292.863 435.699C299.345 435.636 302.611 433.388 302.674 425.782C302.636 420.062 299.084 416.513 293.382 416.488C291.615 416.488 290.779 416.652 289.945 416.734V435.699H292.863Z" fill="#1A1919"/>
<path fill-rule="evenodd" clip-rule="evenodd" d="M364.617 446.652L364.731 446.523V421.979C364.731 416.607 361.011 415.821 359.045 415.821H357.611V413.856C360.688 413.856 363.69 414.116 366.775 414.116C369.466 414.116 372.13 413.856 374.834 413.856V415.821H373.848C371.097 415.821 368.022 416.343 368.022 424.135V453.923C368.022 456.218 368.086 458.507 368.408 460.539H365.93L332.217 422.953V449.932C332.217 455.633 333.323 457.587 338.363 457.587H339.479V459.556C336.665 459.556 333.845 459.301 331.032 459.301C328.076 459.301 325.07 459.556 322.125 459.556V457.587H323.036C327.556 457.587 328.938 454.51 328.938 449.288V421.705C328.938 418.041 325.923 415.821 322.978 415.821H322.125V413.856C324.604 413.856 327.177 414.116 329.659 414.116C331.605 414.116 333.513 413.856 335.481 413.856L364.617 446.652Z" fill="#1A1919"/>
<path fill-rule="evenodd" clip-rule="evenodd" d="M368.406 460.814L365.717 460.721L332.487 423.695V449.93C332.564 455.632 333.426 457.243 338.363 457.305H339.75V459.834H339.466C336.636 459.834 333.826 459.561 331.021 459.561C328.098 459.561 325.073 459.834 322.124 459.834H321.832V457.305H323.036C327.36 457.287 328.599 454.499 328.641 449.27V421.703C328.633 418.214 325.779 416.105 322.978 416.105H321.832V413.57H322.124C324.624 413.57 327.186 413.825 329.658 413.825C331.581 413.825 333.476 413.57 335.672 413.654L364.454 446.058V421.978C364.436 416.779 360.949 416.135 359.046 416.105H357.319V413.57H357.604C360.697 413.57 363.715 413.825 366.775 413.825C369.441 413.825 372.123 413.57 374.822 413.57H375.112V416.105H373.848C371.146 416.17 368.364 416.412 368.299 424.134V453.921C368.299 456.214 368.356 458.484 368.691 460.491L368.723 460.814H368.406ZM365.928 460.243H368.073C367.786 458.285 367.73 456.099 367.73 453.921V424.134C367.734 416.276 371.046 415.548 373.848 415.53H374.537V414.136C371.96 414.157 369.372 414.394 366.775 414.394C363.767 414.394 360.85 414.157 357.888 414.136V415.53H359.046C361.064 415.548 365.028 416.429 365.028 421.978L364.934 446.727L364.815 446.854L364.61 447.069L335.481 414.136C333.534 414.136 331.635 414.394 329.658 414.394C327.229 414.394 324.782 414.157 322.404 414.136V415.53H322.978C326.059 415.548 329.208 417.869 329.208 421.703V449.27C329.208 454.524 327.73 457.869 323.036 457.887L322.404 457.881V459.272C325.232 459.252 328.148 459.011 331.021 459.011C333.766 459.011 336.487 459.252 339.193 459.272V457.887H338.363C333.211 457.881 331.927 455.632 331.912 449.93V422.229L365.928 460.243ZM364.454 446.521V446.505L364.406 446.455L364.454 446.521Z" fill="#1A1919"/>
<path fill-rule="evenodd" clip-rule="evenodd" d="M385.359 450.195C384.699 452.412 383.909 454.132 383.909 455.295C383.909 457.265 386.668 457.589 388.821 457.589H389.552V459.555C386.923 459.414 384.251 459.302 381.617 459.302C379.259 459.302 376.916 459.414 374.552 459.555V457.589H374.95C377.498 457.589 379.666 456.08 380.637 453.33L391.113 423.29C391.968 420.861 393.148 417.589 393.546 415.161C395.628 414.444 398.258 413.144 399.497 412.348C399.699 412.281 399.821 412.214 400.019 412.214C400.218 412.214 400.339 412.214 400.483 412.419C400.676 412.938 400.866 413.528 401.07 414.051L413.121 448.297C413.908 450.581 414.686 453.003 415.523 454.978C416.321 456.814 417.697 457.589 419.865 457.589H420.257V459.555C417.308 459.414 414.353 459.302 411.226 459.302C408.017 459.302 404.732 459.414 401.395 459.555V457.589H402.116C403.612 457.589 406.182 457.33 406.182 455.691C406.182 454.846 405.59 453.077 404.859 450.972L402.309 443.382H387.45L385.359 450.195ZM394.917 421.19H394.781L388.697 439.72H400.928L394.917 421.19Z" fill="#1A1919"/>
<path fill-rule="evenodd" clip-rule="evenodd" d="M420.237 459.835C417.295 459.709 414.344 459.563 411.226 459.563C408.017 459.563 404.75 459.709 401.41 459.835L401.108 459.85V457.292H402.116C403.633 457.292 405.883 456.953 405.888 455.691C405.904 454.945 405.316 453.152 404.595 451.069L402.102 443.662H387.661L385.625 450.279C384.966 452.505 384.17 454.235 384.182 455.299C384.204 456.898 386.648 457.292 388.821 457.292H389.828V459.85L389.53 459.835C386.913 459.709 384.241 459.563 381.622 459.563C379.286 459.563 376.919 459.709 374.574 459.835L374.269 459.85V457.292H374.949C377.382 457.287 379.414 455.897 380.36 453.237L390.846 423.188C391.691 420.764 392.88 417.508 393.446 414.891C395.499 414.194 398.134 412.873 399.39 412.083C399.574 412.018 399.755 411.934 400.018 411.934C400.178 411.924 400.531 411.967 400.744 412.309C400.93 412.847 401.138 413.433 401.335 413.961L413.389 448.203C414.16 450.495 414.944 452.913 415.801 454.854C416.559 456.599 417.761 457.287 419.865 457.292H420.527V459.85L420.237 459.835ZM401.68 459.252C404.919 459.138 408.099 459.012 411.226 459.012C414.262 459.012 417.117 459.138 419.961 459.252V457.881H419.865C417.619 457.897 416.076 457.015 415.273 455.084C414.421 453.106 413.625 450.676 412.852 448.383L400.799 414.139C400.6 413.617 400.414 413.032 400.243 412.567C400.178 412.502 400.193 412.502 400.141 412.502H400.018C399.886 412.502 399.807 412.542 399.639 412.583C398.379 413.401 395.755 414.692 393.807 415.203C393.408 417.684 392.229 420.955 391.378 423.381L380.904 453.423C379.908 456.269 377.606 457.887 374.949 457.881H374.839V459.252C377.084 459.138 379.349 459.012 381.622 459.012C384.155 459.012 386.737 459.138 389.243 459.252V457.881H388.821C386.683 457.852 383.704 457.619 383.629 455.299C383.635 454.001 384.437 452.326 385.079 450.113L387.235 443.109H402.501L405.123 450.884C405.858 452.99 406.454 454.735 406.454 455.691C406.356 457.697 403.601 457.844 402.116 457.881H401.68V459.252ZM388.298 440.001L394.566 420.901H394.917H395.113L401.335 440.001H388.298ZM389.081 439.429H400.542L394.846 421.887L389.081 439.429Z" fill="#1A1919"/>
<path fill-rule="evenodd" clip-rule="evenodd" d="M423.134 417.128C418.224 417.128 418.026 418.313 417.04 423.085H415.072C415.33 421.252 415.665 419.421 415.868 417.523C416.123 415.681 416.25 413.855 416.25 411.961H417.833C418.346 413.927 419.986 413.855 421.753 413.855H455.541C457.299 413.855 458.935 413.79 459.065 411.825L460.63 412.092C460.388 413.855 460.127 415.625 459.921 417.396C459.778 419.163 459.778 420.925 459.778 422.692L457.822 423.421C457.706 421.001 457.377 417.128 452.981 417.128H442.246V451.958C442.246 457.01 444.539 457.587 447.677 457.587H448.928V459.554C446.371 459.554 441.796 459.302 438.252 459.302C434.332 459.302 429.738 459.554 427.185 459.554V457.587H428.432C432.04 457.587 433.866 457.265 433.866 452.095V417.128H423.134Z" fill="#1A1919"/>
<path fill-rule="evenodd" clip-rule="evenodd" d="M448.93 459.834C446.357 459.834 441.767 459.575 438.248 459.575C434.338 459.575 429.753 459.834 427.188 459.834H426.898V457.305H428.432C432.043 457.221 433.49 457.174 433.577 452.095L433.573 417.41H423.134V416.836H434.149V452.095C434.149 457.352 432.028 457.87 428.432 457.883H427.468V459.274C430.055 459.252 434.454 459.012 438.248 459.012C441.67 459.012 446.053 459.252 448.636 459.274V457.883H447.675C444.52 457.87 441.97 457.112 441.966 451.96V416.836H452.981C457.379 416.854 457.952 420.586 458.079 423.022L459.501 422.499C459.501 420.789 459.51 419.077 459.644 417.364C459.821 415.677 460.069 414.001 460.306 412.331L459.317 412.157C459.018 414.063 457.168 414.17 455.541 414.141H421.419C419.875 414.157 418.204 414.069 417.61 412.237H416.539C416.524 414.048 416.396 415.808 416.138 417.553C415.96 419.358 415.644 421.091 415.395 422.814H416.803C417.662 418.247 418.229 416.764 423.134 416.836V417.41C418.279 417.494 418.386 418.316 417.317 423.153L417.27 423.376H414.742L414.782 423.052C415.058 421.211 415.379 419.371 415.571 417.485C415.839 415.654 415.96 413.838 415.96 411.961V411.672H418.039L418.094 411.877C418.552 413.528 419.744 413.541 421.419 413.57H455.541C457.352 413.541 458.673 413.516 458.789 411.808L458.8 411.494L459.105 411.553L460.963 411.845L460.919 412.135C460.648 413.892 460.4 415.654 460.203 417.41C460.069 419.164 460.069 420.925 460.069 422.692V422.891L459.877 422.967L457.56 423.815L457.55 423.436C457.379 420.972 457.119 417.41 452.981 417.41H442.528V451.96C442.595 456.896 444.555 457.243 447.675 457.305H449.202V459.834H448.93Z" fill="#1A1919"/>
<path fill-rule="evenodd" clip-rule="evenodd" d="M463.054 457.587H463.971C466.33 457.587 468.808 457.266 468.808 453.858V419.56C468.808 416.147 466.33 415.823 463.971 415.823H463.054V413.856C465.608 413.856 469.53 414.116 472.734 414.116C476.015 414.116 479.945 413.856 483.028 413.856V415.823H482.109C479.742 415.823 477.254 416.147 477.254 419.56V453.858C477.254 457.266 479.742 457.587 482.109 457.587H483.028V459.556C479.883 459.556 475.95 459.303 472.681 459.303C469.468 459.303 465.608 459.556 463.054 459.556V457.587Z" fill="#1A1919"/>
<path fill-rule="evenodd" clip-rule="evenodd" d="M483.029 459.834C479.864 459.834 475.949 459.561 472.683 459.561C469.477 459.561 465.613 459.834 463.054 459.834H462.774V457.305H463.974C466.333 457.265 468.509 457.056 468.524 453.856V419.56C468.509 416.36 466.333 416.148 463.974 416.105H462.774V413.57H463.054C465.613 413.57 469.55 413.825 472.734 413.825C475.997 413.825 479.926 413.57 483.029 413.57H483.301V416.105H482.112C479.715 416.148 477.562 416.36 477.539 419.56V453.856C477.562 457.056 479.715 457.265 482.112 457.305H483.301V459.834H483.029ZM482.731 459.269V457.881H482.112C479.763 457.881 476.985 457.47 476.985 453.856V419.56C476.985 415.939 479.763 415.535 482.112 415.53H482.731V414.136C479.713 414.157 475.922 414.394 472.734 414.394C469.626 414.394 465.88 414.157 463.339 414.136V415.53H463.974C466.298 415.535 469.088 415.939 469.097 419.56V453.856C469.088 457.47 466.298 457.881 463.974 457.881H463.339V459.269C465.862 459.24 469.564 459.011 472.683 459.011C475.857 459.011 479.643 459.252 482.731 459.269Z" fill="#1A1919"/>
<path fill-rule="evenodd" clip-rule="evenodd" d="M509.134 412.875C523.091 412.875 534.215 421.526 534.215 435.47C534.215 450.53 523.41 460.539 509.47 460.539C495.585 460.539 484.983 451.11 484.983 437.032C484.983 423.421 495.521 412.875 509.134 412.875ZM510.123 457.657C522.828 457.657 525.043 446.454 525.043 436.908C525.043 427.339 519.884 415.756 509.01 415.756C497.556 415.756 494.148 425.971 494.148 434.737C494.148 446.454 499.52 457.657 510.123 457.657Z" fill="#1A1919"/>
<path fill-rule="evenodd" clip-rule="evenodd" d="M484.691 437.032C484.719 423.263 495.376 412.612 509.13 412.59V413.163C495.672 413.163 485.261 423.565 485.245 437.032C485.273 450.952 495.721 460.24 509.472 460.244C523.27 460.24 533.92 450.374 533.936 435.461C533.924 421.69 522.975 413.175 509.13 413.163V412.59C523.186 412.604 534.469 421.341 534.494 435.461C534.48 450.677 523.546 460.79 509.472 460.815C495.467 460.79 484.719 451.266 484.691 437.032ZM493.859 434.737C493.88 425.927 497.317 415.465 509.007 415.465C520.124 415.49 525.307 427.288 525.33 436.908C525.307 446.454 523.062 457.926 510.124 457.926V457.37C522.572 457.36 524.735 446.454 524.754 436.908C524.754 427.423 519.648 416.059 509.007 416.041C497.775 416.054 494.456 426.017 494.427 434.737C494.432 446.399 499.756 457.353 510.124 457.37V457.926C499.258 457.916 493.88 446.523 493.859 434.737Z" fill="#1A1919"/>
<path fill-rule="evenodd" clip-rule="evenodd" d="M578.331 446.652L578.468 446.523V421.979C578.468 416.607 574.723 415.821 572.76 415.821H571.335V413.856C574.403 413.856 577.422 414.116 580.49 414.116C583.181 414.116 585.865 413.856 588.552 413.856V415.821H587.567C584.824 415.821 581.734 416.343 581.734 424.135V453.923C581.734 456.218 581.803 458.507 582.135 460.539H579.644L545.921 422.953V449.932C545.921 455.633 547.04 457.587 552.07 457.587H553.193V459.556C550.375 459.556 547.566 459.301 544.75 459.301C541.8 459.301 538.788 459.556 535.84 459.556V457.587H536.76C541.286 457.587 542.651 454.51 542.651 449.288V421.705C542.651 418.041 539.65 415.821 536.688 415.821H535.84V413.856C538.328 413.856 540.879 414.116 543.373 414.116C545.333 414.116 547.221 413.856 549.193 413.856L578.331 446.652Z" fill="#1A1919"/>
<path fill-rule="evenodd" clip-rule="evenodd" d="M582.138 460.814L579.429 460.721L546.204 423.695V449.931C546.281 455.632 547.146 457.234 552.062 457.292H553.473V459.834H553.194C550.36 459.834 547.55 459.572 544.749 459.572C541.815 459.572 538.801 459.834 535.833 459.834H535.565V457.292H536.757C541.072 457.28 542.316 454.499 542.368 449.285V421.703C542.365 418.214 539.503 416.105 536.691 416.105H535.565V413.57H535.833C538.343 413.57 540.896 413.825 543.37 413.825C545.312 413.825 547.193 413.57 549.414 413.672L578.179 446.058V421.978C578.157 416.779 574.67 416.148 572.76 416.105H571.036V413.57H571.335C574.411 413.57 577.432 413.825 580.483 413.825C583.161 413.825 585.833 413.57 588.553 413.57H588.829V416.105H587.564C584.866 416.174 582.08 416.422 582.026 424.134V453.921C582.026 456.214 582.079 458.499 582.396 460.491L582.452 460.814H582.138ZM579.644 460.243H581.79C581.513 458.273 581.448 456.099 581.448 453.921V424.134C581.448 416.263 584.754 415.548 587.564 415.53H588.273V414.136C585.674 414.157 583.099 414.394 580.483 414.394C577.501 414.394 574.574 414.157 571.61 414.136V415.53H572.76C574.782 415.548 578.735 416.441 578.735 421.978L578.666 446.727L578.539 446.854L578.331 447.069L549.196 414.136C547.258 414.136 545.352 414.394 543.37 414.394C540.956 414.394 538.496 414.157 536.116 414.136V415.53H536.691C539.768 415.548 542.931 417.869 542.931 421.703V449.285C542.931 454.524 541.469 457.869 536.757 457.887L536.116 457.881V459.272C538.959 459.252 541.872 459.011 544.749 459.011C547.48 459.011 550.194 459.252 552.908 459.272V457.887H552.062C546.925 457.881 545.637 455.632 545.637 449.931V422.218L579.644 460.243ZM578.179 446.521V446.505L578.128 446.455L578.179 446.521Z" fill="#1A1919"/>
<path fill-rule="evenodd" clip-rule="evenodd" d="M599.068 450.195C598.426 452.412 597.636 454.132 597.636 455.295C597.636 457.265 600.393 457.589 602.539 457.589H603.27V459.555C600.648 459.414 597.963 459.302 595.341 459.302C592.983 459.302 590.63 459.414 588.283 459.555V457.589H588.655C591.222 457.589 593.39 456.08 594.348 453.33L604.844 423.29C605.69 420.861 606.874 417.589 607.251 415.161C609.354 414.444 611.967 413.144 613.228 412.348C613.411 412.281 613.543 412.214 613.746 412.214C613.937 412.214 614.061 412.214 614.194 412.419C614.393 412.938 614.589 413.528 614.786 414.051L626.833 448.297C627.614 450.581 628.404 453.003 629.259 454.978C630.045 456.814 631.418 457.589 633.576 457.589H633.981V459.555C631.029 459.414 628.08 459.302 624.935 459.302C621.734 459.302 618.455 459.414 615.112 459.555V457.589H615.837C617.334 457.589 619.902 457.33 619.902 455.691C619.902 454.846 619.314 453.077 618.583 450.972L616.03 443.382H601.172L599.068 450.195ZM608.641 421.19H608.51L602.405 439.72H614.668L608.641 421.19Z" fill="#1A1919"/>
<path fill-rule="evenodd" clip-rule="evenodd" d="M633.95 459.835C631 459.717 628.061 459.571 624.938 459.571C621.743 459.571 618.462 459.717 615.127 459.835L614.837 459.85V457.305H615.833C617.354 457.305 619.61 456.952 619.612 455.691C619.629 454.945 619.037 453.159 618.301 451.069L615.818 443.662H601.365L599.343 450.279C598.684 452.521 597.91 454.233 597.918 455.294C597.918 456.898 600.374 457.305 602.538 457.305H603.539V459.85L603.244 459.835C600.629 459.717 597.947 459.571 595.341 459.571C592.994 459.571 590.645 459.717 588.283 459.835L587.999 459.85V457.305H588.655C591.096 457.293 593.138 455.894 594.096 453.237L604.567 423.188C605.407 420.764 606.589 417.508 607.164 414.901C609.221 414.186 611.851 412.873 613.124 412.083C613.292 412.018 613.476 411.939 613.743 411.939C613.913 411.924 614.256 411.966 614.458 412.323C614.656 412.839 614.85 413.433 615.062 413.961L627.101 448.201C627.89 450.494 628.67 452.913 629.52 454.866C630.291 456.597 631.476 457.287 633.57 457.305H634.245V459.85L633.95 459.835ZM615.392 459.257C618.63 459.138 621.815 459.011 624.938 459.011C627.981 459.011 630.829 459.138 633.685 459.252L633.679 457.881H633.57C631.352 457.887 629.807 457.014 628.99 455.084C628.127 453.106 627.349 450.675 626.564 448.39L614.517 414.139C614.324 413.617 614.116 413.032 613.963 412.578C613.907 412.502 613.913 412.502 613.873 412.502H613.743C613.603 412.502 613.531 412.546 613.375 412.59C612.094 413.392 609.474 414.705 607.541 415.203C607.135 417.683 605.945 420.949 605.102 423.381L594.618 453.424C593.621 456.269 591.334 457.887 588.655 457.881H588.559V459.252C590.814 459.138 593.063 459.011 595.341 459.011C597.876 459.011 600.466 459.138 602.981 459.252V457.881H602.538C600.41 457.852 597.425 457.626 597.341 455.294C597.359 454.001 598.164 452.331 598.805 450.113L600.959 443.109H616.219L618.85 450.883C619.57 452.99 620.167 454.734 620.167 455.691C620.073 457.695 617.32 457.844 615.833 457.881H615.392V459.257ZM602.015 439.999L608.302 420.899H608.641H608.84L615.03 439.999H602.015ZM602.805 439.429H614.259L608.564 421.897L602.805 439.429Z" fill="#1A1919"/>
<path fill-rule="evenodd" clip-rule="evenodd" d="M650.47 453.135C650.47 455.767 652.29 456.542 654.39 456.815C657.07 457.011 660.019 457.011 663.04 456.676C665.786 456.346 668.142 454.785 669.317 453.135C670.357 451.698 670.947 449.863 671.349 448.426H673.243C672.521 452.158 671.607 455.829 670.821 459.556C665.072 459.556 659.292 459.303 653.541 459.303C647.774 459.303 642.018 459.556 636.258 459.556V457.587H637.165C639.527 457.587 642.09 457.266 642.09 453.207V419.56C642.09 416.147 639.527 415.821 637.165 415.821H636.258V413.856C639.723 413.856 643.132 414.116 646.597 414.116C649.942 414.116 653.208 413.856 656.557 413.856V415.821H654.912C652.423 415.821 650.47 415.891 650.47 419.36V453.135Z" fill="#1A1919"/>
<path fill-rule="evenodd" clip-rule="evenodd" d="M670.824 459.834C665.05 459.834 659.283 459.572 653.541 459.572C647.781 459.572 642.019 459.834 636.246 459.834H635.97V457.305H637.164C639.531 457.247 641.779 457.081 641.807 453.205V419.547C641.779 416.36 639.541 416.148 637.164 416.105H635.97V413.57H636.246C639.732 413.57 643.139 413.825 646.592 413.825C649.926 413.825 653.186 413.57 656.556 413.57H656.819V416.105H654.91C652.371 416.17 650.795 416.055 650.738 419.359V453.134C650.755 455.582 652.359 456.236 654.406 456.528C655.557 456.608 656.777 456.65 658.036 456.65C659.637 456.65 661.299 456.575 662.992 456.397C665.659 456.08 667.953 454.538 669.086 452.978C670.097 451.576 670.668 449.783 671.064 448.359L671.119 448.142H673.586L673.53 448.487C672.789 452.229 671.887 455.881 671.094 459.614L671.041 459.834H670.824ZM670.584 459.269C671.341 455.713 672.196 452.236 672.905 448.705H671.555C671.153 450.13 670.568 451.887 669.542 453.312C668.317 455.007 665.894 456.608 663.054 456.96C661.342 457.134 659.639 457.222 658.036 457.222C656.767 457.222 655.544 457.165 654.35 457.081C652.222 456.848 650.163 455.934 650.166 453.134V419.359C650.166 415.719 652.468 415.53 654.91 415.53H656.259V414.136C653.035 414.157 649.851 414.403 646.592 414.403C643.21 414.403 639.891 414.157 636.541 414.136V415.53H637.164C639.499 415.53 642.357 415.939 642.357 419.547V453.205C642.357 457.443 639.512 457.881 637.164 457.881H636.541V459.269C642.196 459.256 647.855 459.011 653.541 459.011C659.233 459.011 664.916 459.256 670.584 459.269Z" fill="#1A1919"/>
<path fill-rule="evenodd" clip-rule="evenodd" d="M263.532 182.724C263.532 121.486 313.175 71.844 374.41 71.844C435.648 71.844 485.291 121.486 485.291 182.724C485.291 243.961 435.648 293.607 374.41 293.607C313.175 293.607 263.532 243.961 263.532 182.724Z" fill="#FFFFFE"/>
<path fill-rule="evenodd" clip-rule="evenodd" d="M441.467 180.541C441.422 152.146 423.674 127.93 398.665 118.339V242.738C423.674 233.135 441.422 208.941 441.467 180.541ZM350.954 242.713V118.352C325.967 127.972 308.245 152.154 308.179 180.541C308.245 208.921 325.967 233.101 350.954 242.713ZM374.822 75.395C316.753 75.418 269.707 122.473 269.698 180.541C269.707 238.603 316.753 285.65 374.822 285.659C432.89 285.65 479.946 238.603 479.96 180.541C479.946 122.473 432.89 75.418 374.822 75.395ZM374.564 295.582C311.022 295.885 258.723 244.405 258.723 181.741C258.723 113.254 311.022 65.884 374.564 65.896H404.342C467.134 65.884 524.441 113.232 524.441 181.741C524.441 244.383 467.134 295.582 404.342 295.582H374.564Z" fill="#0069AA"/>
<path fill-rule="evenodd" clip-rule="evenodd" d="M110.63 457.587H111.55C113.904 457.587 116.392 457.266 116.392 453.858V419.56C116.392 416.147 113.904 415.823 111.55 415.823H110.63V413.856C113.183 413.856 117.111 414.116 120.327 414.116C123.598 414.116 127.521 413.856 130.599 413.856V415.823H129.675C127.331 415.823 124.837 416.147 124.837 419.56V453.858C124.837 457.266 127.331 457.587 129.675 457.587H130.599V459.556C127.459 459.556 123.522 459.303 120.26 459.303C117.046 459.303 113.183 459.556 110.63 459.556V457.587Z" fill="#1A1919"/>
<path fill-rule="evenodd" clip-rule="evenodd" d="M130.599 459.834C127.432 459.834 123.514 459.572 120.255 459.572C117.051 459.572 113.2 459.834 110.63 459.834H110.345V457.305H111.544C113.921 457.247 116.082 457.056 116.102 453.856V419.56C116.082 416.354 113.921 416.148 111.544 416.105H110.345V413.57H110.63C113.2 413.57 117.125 413.825 120.327 413.825C123.583 413.825 127.503 413.57 130.599 413.57H130.891V416.105H129.687C127.308 416.148 125.134 416.354 125.122 419.56V453.856C125.134 457.056 127.308 457.247 129.687 457.305H130.891V459.834H130.599ZM130.316 459.274L130.319 457.881H129.687C127.345 457.881 124.562 457.47 124.547 453.856V419.56C124.562 415.939 127.345 415.535 129.687 415.535H130.316V414.136C127.295 414.139 123.501 414.403 120.327 414.403C117.217 414.403 113.452 414.157 110.917 414.136V415.535H111.544C113.879 415.535 116.667 415.939 116.667 419.56V453.856C116.667 457.47 113.879 457.881 111.544 457.881H110.917V459.274C113.452 459.252 117.15 459.011 120.255 459.011C123.444 459.011 127.228 459.256 130.316 459.274Z" fill="#1A1919"/>
<path fill-rule="evenodd" clip-rule="evenodd" d="M672.444 411.999C676.395 411.999 679.341 415.032 679.341 418.908C679.341 422.781 676.395 425.782 672.444 425.782C668.504 425.782 665.553 422.781 665.553 418.908C665.553 415.032 668.504 411.999 672.444 411.999ZM672.444 424.501C675.537 424.501 677.899 421.872 677.899 418.908C677.899 415.939 675.564 413.29 672.444 413.29C669.342 413.29 666.982 415.939 666.982 418.908C666.982 421.872 669.342 424.501 672.444 424.501ZM669.017 422.543V422.208C669.859 422.087 670.018 422.109 670.018 421.594V416.484C670.018 415.765 669.946 415.517 669.044 415.557V415.205H672.574C673.785 415.205 674.902 415.785 674.902 417.039C674.902 418.063 674.229 418.823 673.272 419.119L674.407 420.699C674.935 421.414 675.537 422.087 675.924 422.325V422.543H674.584C673.939 422.543 673.368 421.19 672.105 419.374H671.342V421.658C671.342 422.109 671.501 422.087 672.348 422.208V422.543H669.017ZM671.342 418.908H672.155C673.044 418.908 673.455 418.236 673.455 417.149C673.455 416.052 672.821 415.663 672.11 415.663H671.342V418.908Z" fill="#1A1919"/>
</svg>
