<svg width="800" height="448" viewBox="0 0 800 448" fill="none" xmlns="http://www.w3.org/2000/svg">
<g clip-path="url(#clip0_31_2480)">
<path d="M355.234 334.579H300.296L334.632 123.567H389.575L355.234 334.579ZM254.08 123.567L201.705 268.703L195.507 237.45L195.513 237.461L177.027 142.566C177.027 142.566 174.792 123.567 150.967 123.567H64.3807L63.3647 127.14C63.3647 127.14 89.8429 132.649 120.831 151.259L168.56 334.585H225.801L313.205 123.567H254.08ZM686.191 334.579H736.635L692.654 123.561H648.492C628.098 123.561 623.131 139.287 623.131 139.287L541.196 334.579H598.465L609.917 303.236H679.756L686.191 334.579ZM625.739 259.937L654.605 180.971L670.844 259.937H625.739ZM545.492 174.311L553.332 128.997C553.332 128.997 529.14 119.797 503.92 119.797C476.657 119.797 411.916 131.712 411.916 189.652C411.916 244.167 487.901 244.844 487.901 273.478C487.901 302.113 419.744 296.982 397.251 278.925L389.084 326.305C389.084 326.305 413.615 338.22 451.094 338.22C488.584 338.22 545.142 318.809 545.142 265.977C545.142 211.113 468.473 206.004 468.473 182.151C468.479 158.292 521.982 161.357 545.492 174.311Z" fill="#2566AF"/>
<path d="M195.513 237.455L177.027 142.561C177.027 142.561 174.792 123.562 150.967 123.562H64.3807L63.3647 127.134C63.3647 127.134 104.981 135.759 144.899 168.074C183.067 198.96 195.513 237.455 195.513 237.455Z" fill="#E6A540"/>
</g>
<defs>
<clipPath id="clip0_31_2480">
<rect width="800" height="448" fill="white"/>
</clipPath>
</defs>
</svg>
