<svg width="35" height="32" viewBox="0 0 35 32" fill="none" xmlns="http://www.w3.org/2000/svg">
<path d="M5.83333 28V30C5.83333 30.5667 5.64699 31.0417 5.27431 31.425C4.90162 31.8083 4.43982 32 3.88889 32H1.94444C1.39352 32 0.931713 31.8083 0.559028 31.425C0.186343 31.0417 0 30.5667 0 30V14L4.08333 2C4.27778 1.4 4.62616 0.916667 5.12847 0.55C5.63079 0.183333 6.18982 0 6.80556 0H28.1944C28.8102 0 29.3692 0.183333 29.8715 0.55C30.3738 0.916667 30.7222 1.4 30.9167 2L35 14V30C35 30.5667 34.8137 31.0417 34.441 31.425C34.0683 31.8083 33.6065 32 33.0556 32H31.1111C30.5602 32 30.0984 31.8083 29.7257 31.425C29.353 31.0417 29.1667 30.5667 29.1667 30V28H5.83333ZM5.44444 10H29.5556L27.5139 4H7.48611L5.44444 10ZM8.75 22C9.56019 22 10.2488 21.7083 10.816 21.125C11.3831 20.5417 11.6667 19.8333 11.6667 19C11.6667 18.1667 11.3831 17.4583 10.816 16.875C10.2488 16.2917 9.56019 16 8.75 16C7.93982 16 7.25116 16.2917 6.68403 16.875C6.1169 17.4583 5.83333 18.1667 5.83333 19C5.83333 19.8333 6.1169 20.5417 6.68403 21.125C7.25116 21.7083 7.93982 22 8.75 22ZM26.25 22C27.0602 22 27.7488 21.7083 28.316 21.125C28.8831 20.5417 29.1667 19.8333 29.1667 19C29.1667 18.1667 28.8831 17.4583 28.316 16.875C27.7488 16.2917 27.0602 16 26.25 16C25.4398 16 24.7512 16.2917 24.184 16.875C23.6169 17.4583 23.3333 18.1667 23.3333 19C23.3333 19.8333 23.6169 20.5417 24.184 21.125C24.7512 21.7083 25.4398 22 26.25 22ZM3.88889 24H31.1111V14H3.88889V24Z" fill="#A22017"/>
<path d="M8.75 22C9.56018 22 10.2488 21.7083 10.816 21.125C11.3831 20.5417 11.6667 19.8333 11.6667 19C11.6667 18.1667 11.3831 17.4583 10.816 16.875C10.2488 16.2917 9.56018 16 8.75 16C7.93981 16 7.25116 16.2917 6.68403 16.875C6.1169 17.4583 5.83333 18.1667 5.83333 19C5.83333 19.8333 6.1169 20.5417 6.68403 21.125C7.25116 21.7083 7.93981 22 8.75 22ZM26.25 22C27.0602 22 27.7488 21.7083 28.316 21.125C28.8831 20.5417 29.1667 19.8333 29.1667 19C29.1667 18.1667 28.8831 17.4583 28.316 16.875C27.7488 16.2917 27.0602 16 26.25 16C25.4398 16 24.7512 16.2917 24.184 16.875C23.6169 17.4583 23.3333 18.1667 23.3333 19C23.3333 19.8333 23.6169 20.5417 24.184 21.125C24.7512 21.7083 25.4398 22 26.25 22Z" fill="url(#paint0_linear_41_2119)"/>
<defs>
<linearGradient id="paint0_linear_41_2119" x1="-2.54938" y1="21.9474" x2="6.77457" y2="-2.10335" gradientUnits="userSpaceOnUse">
<stop stop-color="#B49B50"/>
<stop offset="1" stop-color="#C0981E"/>
</linearGradient>
</defs>
</svg>
