<svg width="50" height="40" viewBox="0 0 50 40" fill="none" xmlns="http://www.w3.org/2000/svg">
<path d="M17.125 29.125L39.375 23.25C40 23.0833 40.4688 22.6979 40.7812 22.0938C41.0938 21.4896 41.1667 20.875 41 20.25C40.8333 19.625 40.4688 19.1562 39.9062 18.8438C39.3438 18.5312 38.75 18.4583 38.125 18.625L32 20.25L22 10.875L18.5 11.75L24.5 22.25L18.5 23.75L15.375 21.375L13 22L17.125 29.125ZM45 40H5C3.625 40 2.44792 39.5104 1.46875 38.5312C0.489583 37.5521 0 36.375 0 35V25C1.375 25 2.55208 24.5104 3.53125 23.5312C4.51042 22.5521 5 21.375 5 20C5 18.625 4.51042 17.4479 3.53125 16.4688C2.55208 15.4896 1.375 15 0 15V5C0 3.625 0.489583 2.44792 1.46875 1.46875C2.44792 0.489583 3.625 0 5 0H45C46.375 0 47.5521 0.489583 48.5312 1.46875C49.5104 2.44792 50 3.625 50 5V35C50 36.375 49.5104 37.5521 48.5312 38.5312C47.5521 39.5104 46.375 40 45 40ZM45 35V5H5V11.375C6.54167 12.2917 7.76042 13.5104 8.65625 15.0312C9.55208 16.5521 10 18.2083 10 20C10 21.7917 9.55208 23.4479 8.65625 24.9688C7.76042 26.4896 6.54167 27.7083 5 28.625V35H45Z" fill="url(#paint0_linear_41_2131)"/>
<path d="M17.125 29.125L39.375 23.25C40 23.0833 40.4688 22.6979 40.7812 22.0938C41.0938 21.4896 41.1667 20.875 41 20.25C40.8333 19.625 40.4688 19.1562 39.9062 18.8438C39.3438 18.5312 38.75 18.4583 38.125 18.625L32 20.25L22 10.875L18.5 11.75L24.5 22.25L18.5 23.75L15.375 21.375L13 22L17.125 29.125Z" fill="#A22017"/>
<defs>
<linearGradient id="paint0_linear_41_2131" x1="-17.963" y1="39.6491" x2="72.6591" y2="-35.4866" gradientUnits="userSpaceOnUse">
<stop stop-color="#B49B50"/>
<stop offset="1" stop-color="#FFF4D1"/>
</linearGradient>
</defs>
</svg>
