<svg width="66" height="40" viewBox="0 0 66 40" fill="none" xmlns="http://www.w3.org/2000/svg">
<path d="M20.0909 14.0625C18.803 14.0625 17.7083 13.6068 16.8068 12.6953C15.9053 11.7839 15.4545 10.6771 15.4545 9.375C15.4545 8.07292 15.9053 6.96615 16.8068 6.05469C17.7083 5.14323 18.803 4.6875 20.0909 4.6875C21.3788 4.6875 22.4735 5.14323 23.375 6.05469C24.2765 6.96615 24.7273 8.07292 24.7273 9.375C24.7273 10.6771 24.2765 11.7839 23.375 12.6953C22.4735 13.6068 21.3788 14.0625 20.0909 14.0625ZM9.27273 18.75C8.42273 18.75 7.69508 18.444 7.08977 17.832C6.48447 17.2201 6.18182 16.4844 6.18182 15.625V3.125C6.18182 2.26562 6.48447 1.52995 7.08977 0.917969C7.69508 0.30599 8.42273 0 9.27273 0H30.9091C31.7591 0 32.4867 0.30599 33.092 0.917969C33.6973 1.52995 34 2.26562 34 3.125V15.625C34 16.4844 33.6973 17.2201 33.092 17.832C32.4867 18.444 31.7591 18.75 30.9091 18.75H9.27273ZM12.3636 15.625H27.8182C27.8182 14.7656 28.1208 14.0299 28.7261 13.418C29.3314 12.806 30.0591 12.5 30.9091 12.5V6.25C30.0591 6.25 29.3314 5.94401 28.7261 5.33203C28.1208 4.72005 27.8182 3.98438 27.8182 3.125H12.3636C12.3636 3.98438 12.061 4.72005 11.4557 5.33203C10.8504 5.94401 10.1227 6.25 9.27273 6.25V12.5C10.1227 12.5 10.8504 12.806 11.4557 13.418C12.061 14.0299 12.3636 14.7656 12.3636 15.625ZM29.3636 25H3.09091C2.24091 25 1.51326 24.694 0.907955 24.082C0.302651 23.4701 0 22.7344 0 21.875V4.6875H3.09091V21.875H29.3636V25Z" fill="url(#paint0_linear_41_2137)"/>
<path d="M65.1159 16.6029L59.9653 35.8251C59.7292 36.7062 59.2134 37.3763 58.4179 37.8356C57.6224 38.2949 56.7841 38.4065 55.9031 38.1704L30.2734 31.303C29.3924 31.0669 28.7222 30.5511 28.2629 29.7556C27.8037 28.9601 27.6921 28.1218 27.9281 27.2408L33.0787 8.01853C33.3148 7.13751 33.8306 6.46736 34.6261 6.00807C35.4216 5.54879 36.2598 5.43718 37.1409 5.67325L62.7706 12.5407C63.6516 12.7768 64.3217 13.2926 64.781 14.0881C65.2403 14.8836 65.3519 15.7218 65.1159 16.6029ZM35.424 12.0807L61.0537 18.9481L61.9121 15.7444L36.2824 8.87697L35.424 12.0807ZM33.7071 18.4881L31.1318 28.0993L56.7615 34.9667L59.3368 25.3556L33.7071 18.4881Z" fill="#A22017"/>
<defs>
<linearGradient id="paint0_linear_41_2137" x1="-12.2148" y1="24.7807" x2="45.1167" y2="-26.9365" gradientUnits="userSpaceOnUse">
<stop stop-color="#B49B50"/>
<stop offset="1" stop-color="#FFF4D1"/>
</linearGradient>
</defs>
</svg>
