<svg width="25" height="24" viewBox="0 0 25 24" fill="none" xmlns="http://www.w3.org/2000/svg">
<path d="M23.0556 24L14.3056 15.6C13.6111 16.1333 12.8125 16.5556 11.9097 16.8667C11.0069 17.1778 10.0463 17.3333 9.02778 17.3333C6.50463 17.3333 4.36921 16.4944 2.62153 14.8167C0.873843 13.1389 0 11.0889 0 8.66667C0 6.24444 0.873843 4.19444 2.62153 2.51667C4.36921 0.838889 6.50463 0 9.02778 0C11.5509 0 13.6863 0.838889 15.434 2.51667C17.1817 4.19444 18.0556 6.24444 18.0556 8.66667C18.0556 9.64445 17.8935 10.5667 17.5694 11.4333C17.2454 12.3 16.8056 13.0667 16.25 13.7333L25 22.1333L23.0556 24ZM9.02778 14.6667C10.7639 14.6667 12.2396 14.0833 13.4549 12.9167C14.6701 11.75 15.2778 10.3333 15.2778 8.66667C15.2778 7 14.6701 5.58333 13.4549 4.41667C12.2396 3.25 10.7639 2.66667 9.02778 2.66667C7.29167 2.66667 5.81597 3.25 4.60069 4.41667C3.38542 5.58333 2.77778 7 2.77778 8.66667C2.77778 10.3333 3.38542 11.75 4.60069 12.9167C5.81597 14.0833 7.29167 14.6667 9.02778 14.6667Z" fill="url(#paint0_linear_30_600)"/>
<defs>
<linearGradient id="paint0_linear_30_600" x1="-8.98148" y1="23.7895" x2="42.7717" y2="-11.9681" gradientUnits="userSpaceOnUse">
<stop stop-color="#B49B50"/>
<stop offset="1" stop-color="#FFF4D1"/>
</linearGradient>
</defs>
</svg>
