<svg width="43" height="40" viewBox="0 0 43 40" fill="none" xmlns="http://www.w3.org/2000/svg">
<path d="M17.5909 40V36.0976H43V40H17.5909ZM19.5455 34.1463C19.5455 31.5122 20.3761 29.2114 22.0375 27.2439C23.6989 25.2764 25.8 24.065 28.3409 23.6098V22.3902C28.3409 21.8374 28.5282 21.374 28.9028 21C29.2775 20.626 29.7417 20.439 30.2955 20.439C30.8492 20.439 31.3134 20.626 31.6881 21C32.0627 21.374 32.25 21.8374 32.25 22.3902V23.6098C34.7583 24.065 36.8513 25.2764 38.529 27.2439C40.2066 29.2114 41.0455 31.5122 41.0455 34.1463H19.5455ZM24.6761 30.1951H35.817C35.1981 29.3171 34.4081 28.6098 33.4472 28.0732C32.4862 27.5366 31.4356 27.2683 30.2955 27.2683C29.1227 27.2683 28.0477 27.5366 27.0705 28.0732C26.0932 28.6098 25.2951 29.3171 24.6761 30.1951ZM0 22.439V0.97561H11.7273V3.80488L25.4091 0L41.0455 4.87805V6.82927C41.0455 8.45528 40.4754 9.8374 39.3352 10.9756C38.1951 12.1138 36.8106 12.6829 35.1818 12.6829H31.2727V13.8537C31.2727 14.6667 31.0366 15.4065 30.5642 16.0732C30.0919 16.7398 29.4811 17.2195 28.7318 17.5122L15.5386 22.439H0ZM3.90909 18.5366H7.81818V4.87805H3.90909V18.5366ZM11.7273 18.5366H14.8545L26.1909 14.3902C26.5492 14.2602 26.8343 14.0406 27.046 13.7317C27.2578 13.4228 27.3636 13.0732 27.3636 12.6829H23.8943L18.1773 14.5366L17.0045 10.8293L23.1125 8.78049H35.1818C35.475 8.78049 35.8415 8.6748 36.2812 8.46341C36.721 8.25203 36.9409 8 36.9409 7.70732L25.3114 4.09756L11.7273 7.80488V18.5366Z" fill="url(#paint0_linear_41_2125)"/>
<path d="M0 22.439V0.97561H11.7273V3.80488L25.4091 0L41.0455 4.87805V6.82927C41.0455 8.45528 40.4754 9.8374 39.3352 10.9756C38.1951 12.1138 36.8106 12.6829 35.1818 12.6829H31.2727V13.8537C31.2727 14.6667 31.0366 15.4065 30.5642 16.0732C30.0919 16.7398 29.4811 17.2195 28.7318 17.5122L15.5386 22.439H0ZM3.90909 18.5366H7.81818V4.87805H3.90909V18.5366ZM11.7273 18.5366H14.8545L26.1909 14.3902C26.5492 14.2602 26.8343 14.0406 27.046 13.7317C27.2578 13.4228 27.3636 13.0732 27.3636 12.6829H23.8943L18.1773 14.5366L17.0045 10.8293L23.1125 8.78049H35.1818C35.475 8.78049 35.8415 8.6748 36.2812 8.46341C36.721 8.25203 36.9409 8 36.9409 7.70732L25.3114 4.09756L11.7273 7.80488V18.5366Z" fill="#A22017"/>
<defs>
<linearGradient id="paint0_linear_41_2125" x1="-15.4481" y1="39.6491" x2="71.7355" y2="-22.5158" gradientUnits="userSpaceOnUse">
<stop stop-color="#B49B50"/>
<stop offset="1" stop-color="#FFF4D1"/>
</linearGradient>
</defs>
</svg>
